# xmcd
#
# Track frame offsets: 
#        150
#        13447
#        27035
#        39447
#        52815
#        65442
#        76930
#        87530
#        100717
#        112070
#        126140
#        135525
#        148220
#        160355
#        170030
#        181147
#        190607
#        202020
#
# Disc length: 2857 seconds
#
# Revision: 0
# Processed by: cddbd v1.5.2PL0 Copyright (c) Steve Scherf et al.
# Submitted via: ExactAudioCopy v1.0b3
#
DISCID=f90b2712
DTITLE=Various Artist - Harlem Rock 'n' Blues Vol. 3
DYEAR=1900
DGENRE=R&B
TTITLE0=Tiny Grimes - Second Floor Rear
TTITLE1=Willis "Gator" Jackson - Hello... "Gater" Speaking
TTITLE2=Hal Paige and The Wailers - Going Back to My Home Town
TTITLE3=Noble Watts - Jookin'
TTITLE4=Jimmy Spruill - Lonesome Melody
TTITLE5=Red Prysock - The Hammer
TTITLE6=Paul Perriman - Work To Be Done
TTITLE7=Champion Jack Dupree - Highway Blues
TTITLE8=Riff Ruffin - Gravy Train
TTITLE9=Brownie McGhee - Don't Dog Your Woman
TTITLE10=Charles Lucas Combo - Walkin'
TTITLE11=Champion Jack Dupree - Stumblin' Block Blues
TTITLE12=Red Prysock - Jackpot
TTITLE13=Buddy Skipper - The Clock
TTITLE14=Jimmy Spruill - Raisin' Hell
TTITLE15=Johnny Acey - Please Don't Go
TTITLE16=Willis "Gator" Jackson - Makin' It
TTITLE17=King Curtis - Cross Your Fingers
EXTD=
EXTT0=
EXTT1=
EXTT2=
EXTT3=
EXTT4=
EXTT5=
EXTT6=
EXTT7=
EXTT8=
EXTT9=
EXTT10=
EXTT11=
EXTT12=
EXTT13=
EXTT14=
EXTT15=
EXTT16=
EXTT17=
PLAYORDER=
